<?xml version="1.0" encoding="utf-8"?>
<!-- Generator: Adobe Illustrator 27.0.0, SVG Export Plug-In . SVG Version: 6.00 Build 0)  -->
<svg version="1.1" id="Camada_1" xmlns="http://www.w3.org/2000/svg" xmlns:xlink="http://www.w3.org/1999/xlink" x="0px" y="0px"
	 viewBox="0 0 200.1 202.5" style="enable-background:new 0 0 200.1 202.5;" xml:space="preserve">
<style type="text/css">
	.st0{fill:#E9E7E7;}
	.st1{fill:#D12E2E;}
	.st2{fill:#D0C8C8;}
	.st3{fill:#484868;}
	.st4{fill:#82697D;}
	.st5{fill:#BBB2B2;}
	.st6{fill:#3D3D54;}
	.st7{fill:#FDFDFD;}
	.st8{fill:#FEFEFE;}
	.st9{fill:#AC1E1E;}
	.st10{fill:#68647D;}
</style>
<g>
	<path class="st0" d="M176.3,67.8c-0.7,22.5-0.2,45-0.3,67.6c-0.1,11.6,0.6,23.2,0.3,34.7c0,0.6,0.2,1.3-0.3,1.9
		c-0.7-0.8-0.5-1.7-0.5-2.6c0-6.5,0-13,0-19.5c-0.2-0.9-0.9-1-1.6-1c-5.9,0-11.7-0.1-17.6,0c-2.9,0.1-4.7,2.1-4.7,5.2
		c-0.1,5.6,0,11.2,0,16.8c0,0.9,0.1,1.8-0.3,2.6c-0.4,0.6-1,0.6-1.6,0.7c-0.5,0-1.1,0-1.6,0c-37,0-74,0-111,0c-3,0-6-0.3-8.6-2.1
		c-1.8-1.2-3.2-2.8-3.8-4.7c0,1.4,0.6,3-0.4,4.6c-0.6-2.9-0.3-5.8-0.1-8.8c0-0.6,0.2-1.3,0.2-1.9c0-29.2,0-58.3,0-87.5
		c0-2-0.4-4-0.3-6c0.1,0,0.2,0,0.3-0.1c0.2,0.1,0.3,0.3,0.4,0.5c0.5,2.9,0.5,2.9,3.5,2.9c48,0,96.1,0,144.1,0c0.2,0,0.3,0,0.5,0
		c2.7,0,2.7,0,2.9-2.7c0-0.2,0.1-0.4,0.2-0.6C175.9,67.7,176.1,67.7,176.3,67.8z"/>
	<path class="st1" d="M108.6,34.8c8,0,15.9,0,23.9,0.1c0.6,0.6,0.5,1.3,0.5,2c0,1.9,0.2,3.8,0,5.7c-0.3,3.3,1,5.7,3.8,7.4
		c0.9,1.1,1.6,2.5,3.2,2.9c1.9,0.5,3.9-0.2,4.9-1.7c1-1.4,1-3.6-0.1-5.1c-1.1-1.6-3-2.3-4.9-1.7c-0.7,0.2-1.4,1-2.3,0.2
		c-0.6-3.3-0.7-6.5,0.1-9.8c1.5-0.8,3.2-0.3,4.8-0.4c0.7-0.1,1.4,0,2.1,0c1.8,0.1,3.6-0.4,5.3,0.4c5.1,0,10.3,0,15.4,0
		c5.7,0,9.8,3.6,10.7,9.2c0.2,6.4,0.1,12.7,0.1,19.1c0,1.5,0.2,3-0.2,4.5l0,0c-0.5,0.5-1.1,0.5-1.7,0.5c-0.5,0-1.1,0-1.6,0
		c-48.4,0-96.8,0-145.1,0c-1.1,0-2.3,0.3-3.3-0.5l0,0C23.9,67.4,24,67,24,66.6c0-7.2,0-14.5,0-21.7c0-0.3,0-0.5,0.1-0.8
		c0.9-5.7,5-9.2,10.7-9.2c5.1,0,10.2,0,15.2,0c0.6,0.5,0.5,1.3,0.5,2c0.1,2.9-0.1,5.8,0.1,8.6c0.4,2.3,2.2,3.5,3.9,4.8
		c0.6,1,1.3,1.9,2.4,2.4c1.9,0.8,3.9,0.5,5.2-1.1c1.3-1.5,1.5-3.7,0.5-5.2c-1.2-1.8-3.2-2.6-5.2-2c-0.7,0.2-1.4,1-2.3,0.2
		c-0.5-3.3-0.6-6.5,0.1-9.8c1.6-0.8,3.3-0.3,5-0.4c0.6-0.1,1.3,0,2,0c1.8,0.1,3.6-0.4,5.3,0.4c8,0,16,0,23.9,0.1
		c0.7,0.5,0.5,1.3,0.6,1.9c0,2,0.1,4.1,0,6.1c-0.3,3.1,0.7,5.5,3.5,7c0.6,0.5,0.9,1.2,1.5,1.7c1.7,1.7,3.8,1.9,5.6,0.6
		c1.9-1.4,2.5-3.7,1.6-5.6c-1-2-3.2-2.9-5.4-2.3c-0.6,0.2-1.2,0.8-2,0.4c-0.1-0.2-0.2-0.3-0.3-0.5c-0.2-2.8-0.1-5.5-0.1-8.3
		c0-0.4,0.1-0.9,0.4-1.2c2.2-0.8,4.4-0.3,6.6-0.4C105.1,34.5,106.9,34,108.6,34.8z"/>
	<path class="st2" d="M24.1,171.9c0-2.1,0-4.2,0-6.2c1.2,3.1,3.1,5.5,6.2,6.8c1.7,0.7,3.5,1,5.3,1c38,0,75.9,0,113.9,0
		c0.5,0,1.1,0.2,1.5-0.3c1.6-0.6,2.8-1.9,4-3.1c6.6-6.7,13.3-13.3,19.9-20c0.3-0.3,0.5-0.8,1-0.7c0,7.5,0,14.9,0,22.4
		c-0.5,5-5,9.2-9.9,9.2c-44,0-88,0-132,0C29.1,181.1,24.6,176.9,24.1,171.9z"/>
	<path class="st3" d="M149.9,34.8c-1.8,0-3.5,0-5.3,0c-0.7-1.4-0.3-2.9-0.4-4.4c-0.1-2.9-2.3-4.2-4.9-2.9c-0.7,0.4-1,0.9-1,1.7
		c0,1.3,0,2.5,0,3.8c0,0.7,0,1.3-0.4,1.9c0,3.3-0.4,6.6,0.2,9.9c1.1,0.4,2.2,0.7,3.3,0.9c1.9,0.3,2.9,1.6,2.7,3.3
		c-0.2,1.7-1.5,2.8-3.3,2.7c-1.4-0.1-2.9,0-3.9-1.3c-2.9-1.3-4.4-3.5-4.3-6.8c0.1-2.9,0-5.8,0-8.7c0-1.8,0.1-3.6,0.1-5.4
		c0-4.6,1.9-6.9,6.4-7.8c2.4-0.5,4.8-0.3,7,0.8c2.5,1.2,3.9,3.2,3.9,6.1C149.9,30.7,149.9,32.8,149.9,34.8z"/>
	<path class="st3" d="M95.5,50.4c-2.8-1.3-4.2-3.4-4-6.6c0.1-2.9,0-5.9,0-8.9c0-1.9,0-3.7,0-5.6c0-4.5,1.8-6.7,6.2-7.6
		c2.6-0.6,5.1-0.3,7.5,1c2.3,1.2,3.6,3.1,3.5,5.8c-0.1,2.1,0,4.3,0,6.4c-1.8,0-3.5,0-5.3,0c-0.8-0.9-0.4-2.1-0.5-3.1
		c0-0.3,0-0.7,0-1c-0.1-1.2,0.4-2.7-1.2-3.2c-1.6-0.6-3.2-0.5-4.5,0.8c-0.1,0.2-0.2,0.3-0.2,0.5c-0.1,5.3-0.7,10.7-0.3,16l0.1,0
		c1.1,0.5,2.3,0.7,3.5,0.9c1.8,0.3,2.9,1.6,2.7,3.1c-0.1,1.6-1.7,3-3.4,2.9C98.1,51.6,96.7,51.4,95.5,50.4z"/>
	<path class="st3" d="M55.5,34.9c0,3.3-0.4,6.6,0.2,9.9c1.2,0.4,2.4,0.7,3.6,1c1.6,0.4,2.4,1.5,2.4,3.1c-0.1,1.5-1,2.6-2.6,2.7
		c-1.7,0.1-3.4,0.2-4.7-1.2c-1.9-0.9-3.5-2.1-4-4.3c-0.3-1.1-0.1-2.3-0.1-3.4c0-5.2-0.1-10.5,0.1-15.7c0.4-2.6,2.2-3.9,4.4-4.8
		c2.9-1.1,5.9-1.1,8.7,0.3c2.6,1.2,4,3.2,4,6.2c-0.1,2.1,0,4.1,0,6.2c-1.8,0-3.5,0-5.3,0c-0.8-1.4-0.4-3-0.4-4.5
		c-0.1-2.5-0.9-3.3-3.4-3.1c-1.8,0.1-2.5,0.9-2.6,2.7C55.7,31.6,56.1,33.3,55.5,34.9z"/>
	<path class="st2" d="M175.9,67.8c0-7.6,0-15.1,0.1-22.7c0-0.3,0-0.7,0-1c0.4,0.4,0.3,0.9,0.3,1.4c0,7.4,0,14.8,0,22.2
		C176.2,67.8,176,67.8,175.9,67.8z"/>
	<path class="st2" d="M24.1,44.1c0,7.2,0,14.3,0,21.5c0,0.7,0,1.4,0.1,2.1c-0.1,0-0.2,0-0.3,0c0-7.4,0-14.8,0-22.2
		C23.8,45,23.7,44.5,24.1,44.1z"/>
	<path class="st4" d="M50.4,27c0,6.4,0,12.8,0,19.1c-0.5-0.6-0.3-1.2-0.3-1.9c0-3.1,0-6.2,0-9.3c0-2.1,0-4.1,0.1-6.2
		C50.1,28.1,50,27.5,50.4,27z"/>
	<path class="st2" d="M24.2,67.7c50.6,0,101.2,0,151.8,0c0.1,4,0.1,4-3.9,4c-48.3,0-96.7,0-145,0c-2.9,0-2.9,0-2.9-3
		C24.1,68.4,24.1,68.1,24.2,67.7z"/>
	<path class="st5" d="M175.9,149.6c-0.7,0.8-1.4,1.5-2.1,2.3c-6.7,6.7-13.4,13.4-20,20c-0.8,0.8-1.6,1.5-2.8,1.3
		c0-6.5,0-12.9,0-19.4c0-3.4,2.1-5.6,5.5-5.6c6,0,12,0,18.1,0C175.5,148.2,176.2,148.4,175.9,149.6z"/>
	<path class="st3" d="M92.5,156.5c-0.4,0.5-1,0.3-1.5,0.3c-4.1,0-8.1,0-12.2,0c-2.3,0-3.3-1-3.3-3.3c0-3.5,0-7,0-10.5
		c0-2.3,1-3.2,3.2-3.2c3.5,0,7,0,10.5,0c1.6,0.3,2.1,1.5,2.1,2.9c0,4.2,0.3,8.4-0.2,12.5C90.9,156.5,92.3,155.8,92.5,156.5z"/>
	<path class="st3" d="M62.1,156.6c-0.5,0.4-1.2,0.3-1.7,0.3c-3.9,0-7.9,0-11.8,0c-2.4,0-3.4-0.9-3.4-3.4c0-3.5,0-7,0-10.5
		c0-2.3,0.9-3.2,3.2-3.2c3.5,0,7.1,0,10.6,0c1.4,0.6,2.1,1.7,2.1,3.2c0,3.4,0,6.9,0,10.3c0,0.3,0,0.6-0.1,0.8
		C60.3,155.4,60.8,156.1,62.1,156.6z"/>
	<path class="st3" d="M122.8,156.5c-0.4,0.4-0.9,0.3-1.4,0.3c-4.1,0-8.2,0-12.3,0c-2.2,0-3.2-1-3.2-3.2c0-3.6,0-7.1,0-10.7
		c0-2.3,0.9-3.2,3.2-3.2c3.4,0,6.9,0,10.3,0c1.5,0.3,2.3,1.4,2.3,2.8c0,4.2,0.6,8.5-0.3,12.7c-0.1,0.5-0.1,0.7,0.4,0.8
		C122.2,156.1,122.6,156.2,122.8,156.5z"/>
	<path class="st3" d="M59,127.8c-3.7,0-7.3,0.1-11,0c-1.8,0-2.8-1-2.8-2.9c0-3.8,0-7.5,0-11.3c0-1.8,1-2.9,2.8-2.9
		c3.5,0,7.1,0,10.6,0c1.7,0.4,2.4,1.5,2.4,3.1c0.1,3.6,0.1,7.1,0,10.7C61,126,60.5,127.3,59,127.8z"/>
	<path class="st3" d="M59,98.9c-3.7,0-7.4,0.1-11.1,0c-1.7,0-2.6-1-2.7-2.7c0-3.9,0-7.8,0-11.6c0-1.7,1.1-2.7,3-2.7
		c3.6,0,7.2,0,10.8,0c1.5,0.5,2,1.8,2.1,3.2c0.1,3.6,0.1,7.2,0,10.8C61,97.4,60.3,98.4,59,98.9z"/>
	<path class="st3" d="M119.8,127.8c-3.7,0-7.3,0.1-11,0c-1.8,0-2.8-1-2.8-2.9c0-3.8,0-7.5,0-11.3c0-1.9,1-2.8,2.8-2.9
		c3.6,0,7.1,0,10.7,0c1.6,0.3,2.3,1.5,2.4,2.9c0.2,3.7,0.2,7.4,0,11.1C121.7,126.3,121.1,127.4,119.8,127.8z"/>
	<path class="st3" d="M89.2,98.9c-3.6,0-7.2,0.1-10.8,0c-1.8,0-2.8-0.9-2.9-2.7c-0.1-3.9-0.1-7.8,0-11.6c0-1.8,1.1-2.7,3-2.7
		c3.7,0,7.3,0,11,0c1.3,0.6,1.8,1.7,1.8,3c0,3.6,0,7.3,0,10.9C91.3,97.4,90.9,98.6,89.2,98.9z"/>
	<path class="st3" d="M89.2,127.8c-3.6,0-7.2,0.1-10.8,0c-1.7,0-2.8-1-2.9-2.7c-0.1-3.9-0.1-7.8,0-11.6c0-1.7,1.1-2.7,2.9-2.7
		c3.6,0,7.2,0,10.8,0c1.5,0.3,2.1,1.3,2.1,2.7c0.1,3.9,0.1,7.7,0,11.6C91.3,126.5,90.7,127.6,89.2,127.8z"/>
	<path class="st3" d="M119.4,98.9c-3.6,0-7.2,0.1-10.8,0c-1.7,0-2.7-1-2.7-2.7c0-3.9,0-7.8,0-11.6c0-1.8,1.1-2.7,3-2.7
		c3.6,0,7.2,0,10.8,0c1.4,0.5,2,1.7,2,3.1c0.1,3.6,0.1,7.2,0,10.8C121.8,97.4,121.1,98.6,119.4,98.9z"/>
	<path class="st3" d="M150,127.8c-3.6,0-7.2,0.1-10.8,0c-1.8,0-2.9-1-2.9-2.9c-0.1-3.8-0.1-7.5,0-11.3c0-1.9,1.1-2.8,2.9-2.9
		c3.6,0,7.2,0,10.8,0c1.5,0.3,2.1,1.3,2.1,2.7c0.1,3.9,0.1,7.7,0,11.6C152.1,126.5,151.5,127.6,150,127.8z"/>
	<path class="st1" d="M138.7,87.7c1.2-0.1,1.9,0.9,2.7,1.7c2.4,2.4,2.4,2.4,4.6-0.3c1.4-1.7,2.9-3.4,4.4-5.1c1.3-1.5,2.8-1.7,4-0.6
		c1.2,1,1.2,2.5,0.1,3.9c-2.7,3.3-5.5,6.5-8.3,9.8c-1.3,1.5-2.7,1.6-4.1,0.3c-1.8-1.7-3.5-3.4-5.2-5.2c-0.8-0.9-1.1-1.9-0.6-3
		C136.7,88.2,137.5,87.7,138.7,87.7z"/>
	<path class="st6" d="M59,127.8c1.3-1.2,1.7-2.8,1.7-4.5c-0.1-2.8-0.1-5.7,0-8.5c0.1-1.8-0.5-3.1-2-4c4.7-0.3,5.2,0.2,5.2,4.9
		c0,2.7,0,5.4,0,8c0,3.5-0.7,4.2-4.2,4.1C59.4,127.9,59.2,127.9,59,127.8z"/>
	<path class="st6" d="M119.8,127.8c1.3-1.2,1.7-2.8,1.7-4.5c-0.1-2.8-0.1-5.6,0-8.5c0-1.7-0.4-3.1-2-4c4.7-0.3,5.2,0.2,5.2,4.9
		c0,2.7,0,5.4,0,8.2c0,3.2-0.8,4-4.1,4C120.3,127.9,120,127.9,119.8,127.8z"/>
	<path class="st6" d="M119.4,98.9c1.5-0.9,2-2.3,2-4c-0.1-2.8-0.1-5.7,0-8.5c0.1-1.8-0.3-3.3-1.7-4.5c0.7,0,1.3-0.1,2,0
		c1.8,0.1,2.9,1.1,2.9,2.9c0.1,3.8,0.1,7.6,0,11.4c0,1.8-1.1,2.8-2.9,2.8C121,99,120.2,99,119.4,98.9z"/>
	<path class="st6" d="M59,98.9c1.4-1.3,1.8-2.9,1.7-4.7c-0.1-2.6-0.1-5.1,0-7.7c0.1-1.8-0.3-3.3-1.7-4.6c0.7,0,1.3-0.1,2,0
		c1.8,0.1,2.9,1.1,2.9,2.8c0,3.8,0.1,7.6,0,11.5c0,1.8-1.1,2.7-2.9,2.8C60.3,99,59.6,99,59,98.9z"/>
	<path class="st6" d="M89.2,98.9c1.2-0.8,1.7-1.8,1.7-3.3c-0.1-3.1-0.1-6.2,0-9.3c0-1.7-0.1-3.2-1.3-4.4c0.7,0,1.4-0.1,2.1,0
		c1.5,0.1,2.5,1,2.5,2.5c0,4,0.1,8.1,0,12.1c0,1.5-1,2.4-2.5,2.5C90.8,99,90,99,89.2,98.9z"/>
	<path class="st6" d="M89.2,127.8c1.2-0.7,1.7-1.8,1.7-3.3c-0.1-3.5-0.1-7,0-10.4c0-1.5-0.4-2.5-1.7-3.3c0.6,0,1.2-0.1,1.8,0
		c2.3,0,3.1,0.9,3.2,3.1c0,3.4,0,6.7,0,10.1c0,3.1-0.7,3.8-3.8,3.8C90,127.9,89.6,127.9,89.2,127.8z"/>
	<path class="st6" d="M150,127.8c1.2-0.7,1.7-1.8,1.7-3.3c-0.1-3.5-0.1-7,0-10.4c0-1.5-0.4-2.5-1.7-3.3c0.7,0,1.3-0.1,2,0
		c2,0,2.9,0.9,3,3c0,3.7,0,7.3,0,11c0,2.2-0.9,3-3.1,3C151.2,127.9,150.6,127.9,150,127.8z"/>
	<path class="st6" d="M122.8,156.5c-0.8,0-1.6,0-2.7,0c1.2-1.4,1.3-2.9,1.3-4.4c-0.1-2.8-0.1-5.6,0-8.3c0-1.7-0.5-3.1-2-4
		c4.7-0.3,5.2,0.2,5.2,4.9c0,3,0,6,0,9C124.6,154.9,124.3,156.1,122.8,156.5z"/>
	<path class="st6" d="M62.1,156.6c-0.8,0-1.6-0.1-2.6-0.1c1.2-1.4,1.2-3,1.2-4.6c0-2.4-0.1-4.9,0-7.3c0.1-1.8-0.2-3.4-1.7-4.7
		c0.7,0,1.3-0.1,2-0.1c1.8,0,2.9,1,2.9,2.8c0.1,3.8,0,7.6,0,11.5C63.9,155.2,63.3,156.2,62.1,156.6z"/>
	<path class="st6" d="M92.5,156.5c-0.8,0-1.5,0-2.5,0c1.4-2.6,0.6-5.2,0.8-7.7c0.1-1.9-0.1-3.8,0-5.7c0.1-1.5-0.4-2.5-1.7-3.3
		c0.8,0,1.6-0.1,2.5,0c1.5,0.1,2.5,1,2.5,2.5c0.1,4,0,8,0,12C94.1,155.3,93.7,156.2,92.5,156.5z"/>
	<path class="st7" d="M55.5,34.9c0-2,0-4,0-6c0-0.6,0-1.1,0.7-1.5c1.4-0.9,4.2-0.8,5.5,0c0.5,0.4,0.6,0.8,0.6,1.4c0,2,0,4,0,6
		C60,34.9,57.7,34.9,55.5,34.9z"/>
	<path class="st7" d="M137.9,34.9c0-2.1,0-4.1-0.1-6.2c0-0.6,0.1-1.1,0.7-1.4c1.8-0.9,3.5-0.9,5.3,0c0.6,0.3,0.8,0.8,0.8,1.5
		c0,2,0,4,0,6C142.4,34.9,140.2,34.9,137.9,34.9z"/>
	<path class="st8" d="M96.8,27.7c0.9-0.6,1.8-0.9,2.9-1c2.8-0.2,3.7,0.6,3.7,3.4c0,1.6,0,3.2,0,4.7c-2.2,0-4.4,0-6.6,0
		C96.5,32.5,96.5,30.1,96.8,27.7z"/>
	<path class="st9" d="M54.4,50.4c1.2,0.3,2.4,0.6,3.6,0.8c1.7,0.3,3.1-0.7,3.3-2.2c0.2-1.8-0.7-2.8-2.6-3c-1.1-0.1-2.3,0-3-1.2
		c3.6-2.1,7-0.8,8,2.9c0.5,1.9-1.2,5.1-3.2,5.6C57.7,54,55.3,52.9,54.4,50.4z"/>
	<path class="st9" d="M136.9,50.4c1.3,0.3,2.5,0.7,3.8,0.9c1.7,0.2,3-0.8,3.1-2.4c0.1-1.6-0.8-2.7-2.6-2.8c-1.1-0.1-2.3-0.1-3-1.2
		c3.3-2.4,6.6-0.5,7.6,2c1,2.4-0.2,5.5-2.6,6.4C140.5,54.3,137.3,52.8,136.9,50.4z"/>
	<path class="st9" d="M95.5,50.4c1.2,0.3,2.4,0.6,3.6,0.9c1.7,0.3,3.3-0.8,3.5-2.4c0.2-1.5-1-2.6-2.8-2.8c-1.1-0.1-2.3-0.2-3-1.3
		c1.8-1,3.6-1.5,5.5-0.4c1.8,1,2.7,2.5,2.6,4.5c-0.2,2.1-1.4,3.6-3.4,4.4c-2,0.8-3.6,0.1-5-1.3C96.1,51.5,95.7,51,95.5,50.4z"/>
	<path class="st10" d="M96.8,27.7c0,2.4,0,4.8,0,7.2c0,3.3-0.1,6.6-0.1,9.9c-0.4-0.3-0.3-0.8-0.3-1.2c0-4.8,0-9.7,0-14.5
		C96.4,28.6,96.3,28,96.8,27.7z"/>
</g>
</svg>
